<svg xmlns="http://www.w3.org/2000/svg" width="512" height="512" viewBox="0 0 512 512">
<defs>
<linearGradient id="bg" x1="0" y1="0" x2="1" y2="1">
<stop offset="0" stop-color="#6F5FF1"/><stop offset="1" stop-color="#5237CC"/>
</linearGradient>
<radialGradient id="sheen" cx="0.30" cy="0.24" r="0.95">
<stop offset="0" stop-color="#ffffff" stop-opacity="0.30"/>
<stop offset="0.55" stop-color="#ffffff" stop-opacity="0.04"/>
<stop offset="1" stop-color="#ffffff" stop-opacity="0"/>
</radialGradient>
<radialGradient id="vig" cx="0.5" cy="1.08" r="0.85">
<stop offset="0" stop-color="#000000" stop-opacity="0.18"/>
<stop offset="1" stop-color="#000000" stop-opacity="0"/>
</radialGradient>
<filter id="sh" x="-25%" y="-25%" width="150%" height="150%" color-interpolation-filters="sRGB">
<feGaussianBlur in="SourceAlpha" stdDeviation="8"/><feOffset dy="7"/>
<feComponentTransfer><feFuncA type="linear" slope="0.30"/></feComponentTransfer>
<feMerge><feMergeNode/><feMergeNode in="SourceGraphic"/></feMerge>
</filter>
</defs>
<rect x="16" y="16" width="480" height="480" rx="112" fill="url(#bg)"/>
<rect x="16" y="16" width="480" height="480" rx="112" fill="url(#vig)"/>
<rect x="16" y="16" width="480" height="480" rx="112" fill="url(#sheen)"/>
<rect x="17.5" y="17.5" width="477" height="477" rx="110.5" fill="none" stroke="#ffffff" stroke-opacity="0.16" stroke-width="2"/>
<g filter="url(#sh)"><g fill="#fff"><rect x="112" y="142" width="250" height="44" rx="14"/><rect x="112" y="202" width="194" height="44" rx="14"/><rect x="112" y="262" width="140" height="44" rx="14"/></g><path d="M320,368 a46,46 0 1,0 92,0 a46,46 0 1,0 -92,0 Z M349,368 a17,17 0 1,0 34,0 a17,17 0 1,0 -34,0 Z" fill="#fff" fill-rule="evenodd"/><rect x="-15" y="-19" width="30" height="30" rx="8" fill="#fff" transform="translate(412.0,368.0) rotate(90.0)"/><rect x="-15" y="-19" width="30" height="30" rx="8" fill="#fff" transform="translate(398.5,400.5) rotate(135.0)"/><rect x="-15" y="-19" width="30" height="30" rx="8" fill="#fff" transform="translate(366.0,414.0) rotate(180.0)"/><rect x="-15" y="-19" width="30" height="30" rx="8" fill="#fff" transform="translate(333.5,400.5) rotate(225.0)"/><rect x="-15" y="-19" width="30" height="30" rx="8" fill="#fff" transform="translate(320.0,368.0) rotate(270.0)"/><rect x="-15" y="-19" width="30" height="30" rx="8" fill="#fff" transform="translate(333.5,335.5) rotate(315.0)"/><rect x="-15" y="-19" width="30" height="30" rx="8" fill="#fff" transform="translate(366.0,322.0) rotate(360.0)"/><rect x="-15" y="-19" width="30" height="30" rx="8" fill="#fff" transform="translate(398.5,335.5) rotate(405.0)"/></g>
</svg>