<svg xmlns="http://www.w3.org/2000/svg" width="512" height="512" viewBox="0 0 512 512">
<defs>
<linearGradient id="bg" x1="0" y1="0" x2="1" y2="1">
<stop offset="0" stop-color="#785AF1"/><stop offset="1" stop-color="#5B35CD"/>
</linearGradient>
<radialGradient id="sheen" cx="0.30" cy="0.24" r="0.95">
<stop offset="0" stop-color="#ffffff" stop-opacity="0.30"/>
<stop offset="0.55" stop-color="#ffffff" stop-opacity="0.04"/>
<stop offset="1" stop-color="#ffffff" stop-opacity="0"/>
</radialGradient>
<radialGradient id="vig" cx="0.5" cy="1.08" r="0.85">
<stop offset="0" stop-color="#000000" stop-opacity="0.18"/>
<stop offset="1" stop-color="#000000" stop-opacity="0"/>
</radialGradient>
<filter id="sh" x="-25%" y="-25%" width="150%" height="150%" color-interpolation-filters="sRGB">
<feGaussianBlur in="SourceAlpha" stdDeviation="8"/><feOffset dy="7"/>
<feComponentTransfer><feFuncA type="linear" slope="0.30"/></feComponentTransfer>
<feMerge><feMergeNode/><feMergeNode in="SourceGraphic"/></feMerge>
</filter>
</defs>
<rect x="16" y="16" width="480" height="480" rx="112" fill="url(#bg)"/>
<rect x="16" y="16" width="480" height="480" rx="112" fill="url(#vig)"/>
<rect x="16" y="16" width="480" height="480" rx="112" fill="url(#sheen)"/>
<rect x="17.5" y="17.5" width="477" height="477" rx="110.5" fill="none" stroke="#ffffff" stroke-opacity="0.16" stroke-width="2"/>
<g filter="url(#sh)"><line x1="256" y1="92" x2="256" y2="150" stroke="#fff" stroke-width="28" stroke-linecap="round"/><polygon points="256,182 231,136 281,136" fill="#fff"/><g fill="none" stroke="#fff" stroke-width="26" stroke-linecap="round" stroke-linejoin="round"><ellipse cx="256" cy="258" rx="106" ry="37"/><path d="M150 258 V370"/><path d="M362 258 V370"/><path d="M150 370 a106 37 0 0 0 212 0"/><path d="M150 314 a106 37 0 0 0 212 0"/></g></g>
</svg>