<svg xmlns="http://www.w3.org/2000/svg" width="64" height="64" viewBox="0 0 64 64" fill="none">
  <!-- Open book / read data -->
  <path d="M8 14v36c0 1 0.5 2 2 2h16c2 0 4-1 6-3" stroke="#0E9AA7" stroke-width="2.5" stroke-linecap="round" fill="none"/>
  <path d="M56 14v36c0 1-0.5 2-2 2H38c-2 0-4-1-6-3" stroke="#0E9AA7" stroke-width="2.5" stroke-linecap="round" fill="none"/>
  <path d="M32 47V14" stroke="#0E9AA7" stroke-width="2.5" stroke-linecap="round"/>
  <path d="M32 14c-2-2-5-3-8-3H10c-1 0-2 0.5-2 2" stroke="#0E9AA7" stroke-width="2.5" stroke-linecap="round" fill="none"/>
  <path d="M32 14c2-2 5-3 8-3h14c1 0 2 0.5 2 2" stroke="#0E9AA7" stroke-width="2.5" stroke-linecap="round" fill="none"/>
  <!-- Page lines -->
  <line x1="16" y1="22" x2="26" y2="22" stroke="#0E9AA7" stroke-width="1.5" opacity="0.5" stroke-linecap="round"/>
  <line x1="16" y1="28" x2="24" y2="28" stroke="#0E9AA7" stroke-width="1.5" opacity="0.5" stroke-linecap="round"/>
  <line x1="16" y1="34" x2="25" y2="34" stroke="#0E9AA7" stroke-width="1.5" opacity="0.5" stroke-linecap="round"/>
  <line x1="38" y1="22" x2="48" y2="22" stroke="#0E9AA7" stroke-width="1.5" opacity="0.5" stroke-linecap="round"/>
  <line x1="38" y1="28" x2="46" y2="28" stroke="#0E9AA7" stroke-width="1.5" opacity="0.5" stroke-linecap="round"/>
  <line x1="38" y1="34" x2="47" y2="34" stroke="#0E9AA7" stroke-width="1.5" opacity="0.5" stroke-linecap="round"/>
</svg>
