<svg xmlns="http://www.w3.org/2000/svg" viewBox="0 0 200 200">
  <!-- Background circular shape -->
  <circle cx="100" cy="100" r="85" fill="#6366F1" />

  <!-- Open book / catalog shape -->
  <path d="M60 65 L60 135 Q100 125 100 125 Q100 125 140 135 L140 65 Q100 75 100 75 Q100 75 60 65 Z" fill="#FFFFFF" fill-opacity="0.2" stroke="#FFFFFF" stroke-width="3" stroke-linejoin="round" />

  <!-- Book spine -->
  <line x1="100" y1="75" x2="100" y2="125" stroke="#FFFFFF" stroke-width="2" />

  <!-- Data lines on left page -->
  <line x1="70" y1="82" x2="93" y2="86" stroke="#FFFFFF" stroke-width="2" stroke-linecap="round" />
  <line x1="70" y1="92" x2="93" y2="94" stroke="#FFFFFF" stroke-width="2" stroke-linecap="round" />
  <line x1="70" y1="102" x2="93" y2="102" stroke="#FFFFFF" stroke-width="2" stroke-linecap="round" />

  <!-- Data lines on right page -->
  <line x1="107" y1="86" x2="130" y2="82" stroke="#FFFFFF" stroke-width="2" stroke-linecap="round" />
  <line x1="107" y1="94" x2="130" y2="92" stroke="#FFFFFF" stroke-width="2" stroke-linecap="round" />
  <line x1="107" y1="102" x2="130" y2="102" stroke="#FFFFFF" stroke-width="2" stroke-linecap="round" />

  <!-- Read arrow (outward from book) -->
  <line x1="100" y1="140" x2="100" y2="160" stroke="#FFFFFF" stroke-width="3" stroke-linecap="round" />
  <polyline points="90,152 100,162 110,152" fill="none" stroke="#FFFFFF" stroke-width="3" stroke-linecap="round" stroke-linejoin="round" />

  <!-- Label -->
  <text x="100" y="180" font-family="Arial" font-size="12" font-weight="bold" text-anchor="middle" fill="#FFFFFF">CATALOG</text>
</svg>
