<svg xmlns="http://www.w3.org/2000/svg" viewBox="0 0 100 100" width="100" height="100">
  <defs><linearGradient id="bg" x1="0" y1="0" x2="0" y2="1">
      <stop offset="0" stop-color="#15B6C9"/><stop offset="1" stop-color="#0C8FA0"/></linearGradient></defs>
  <circle cx="50" cy="50" r="48" fill="url(#bg)"/>
  <g fill="none" stroke="#FFFFFF" stroke-width="4.5" stroke-linejoin="round" stroke-linecap="round">
    <path d="M36 28 a6 6 0 0 0 -6 6 V46 a6 6 0 0 1 -6 6 a6 6 0 0 1 6 6 V70 a6 6 0 0 0 6 6"/>
    <path d="M64 28 a6 6 0 0 1 6 6 V46 a6 6 0 0 0 6 6 a6 6 0 0 0 -6 6 V70 a6 6 0 0 1 -6 6"/>
    <circle cx="50" cy="52" r="4" fill="#FFFFFF" fill-opacity="0.4"/>
  </g>
</svg>